<svg xmlns="http://www.w3.org/2000/svg" width="267.89" height="35" viewBox="0 0 267.89 35"><rect class="svg__rect" x="0" y="0" width="150.71" height="35" fill="#9F0064"/><rect class="svg__rect" x="148.71" y="0" width="119.18" height="35" fill="#FF60CF"/><path class="svg__text" d="M16.67 22L14.22 22L14.22 13.47L16.74 13.47Q17.87 13.47 18.74 13.97Q19.62 14.48 20.10 15.40Q20.58 16.33 20.58 17.52L20.58 17.52L20.58 17.95Q20.58 19.16 20.10 20.08Q19.61 21.00 18.72 21.50Q17.83 22 16.67 22L16.67 22ZM15.70 14.66L15.70 20.82L16.67 20.82Q17.83 20.82 18.46 20.09Q19.08 19.36 19.09 17.99L19.09 17.99L19.09 17.52Q19.09 16.13 18.49 15.40Q17.89 14.66 16.74 14.66L16.74 14.66L15.70 14.66ZM30.62 22L25.05 22L25.05 13.47L30.58 13.47L30.58 14.66L26.53 14.66L26.53 17.02L30.03 17.02L30.03 18.19L26.53 18.19L26.53 20.82L30.62 20.82L30.62 22ZM34.39 19.42L34.39 19.42L35.87 19.42Q35.87 20.15 36.35 20.55Q36.83 20.95 37.73 20.95L37.73 20.95Q38.50 20.95 38.89 20.63Q39.28 20.32 39.28 19.80L39.28 19.80Q39.28 19.24 38.88 18.94Q38.49 18.63 37.46 18.32Q36.42 18.01 35.81 17.63L35.81 17.63Q34.65 16.90 34.65 15.72L34.65 15.72Q34.65 14.69 35.49 14.02Q36.33 13.35 37.67 13.35L37.67 13.35Q38.56 13.35 39.26 13.68Q39.96 14.01 40.36 14.61Q40.75 15.22 40.75 15.96L40.75 15.96L39.28 15.96Q39.28 15.29 38.86 14.91Q38.44 14.54 37.66 14.54L37.66 14.54Q36.93 14.54 36.53 14.85Q36.13 15.16 36.13 15.71L36.13 15.71Q36.13 16.18 36.56 16.50Q37.00 16.81 37.99 17.10Q38.99 17.40 39.59 17.78Q40.20 18.16 40.48 18.65Q40.76 19.13 40.76 19.79L40.76 19.79Q40.76 20.86 39.94 21.49Q39.13 22.12 37.73 22.12L37.73 22.12Q36.80 22.12 36.02 21.77Q35.25 21.43 34.82 20.83Q34.39 20.22 34.39 19.42ZM46.61 22L45.14 22L45.14 13.47L46.61 13.47L46.61 22ZM51.18 18.13L51.18 18.13L51.18 17.46Q51.18 15.53 52.10 14.44Q53.03 13.35 54.69 13.35L54.69 13.35Q56.11 13.35 56.95 14.05Q57.79 14.76 57.96 16.08L57.96 16.08L56.50 16.08Q56.26 14.54 54.72 14.54L54.72 14.54Q53.72 14.54 53.20 15.26Q52.68 15.98 52.67 17.37L52.67 17.37L52.67 18.02Q52.67 19.40 53.25 20.17Q53.83 20.93 54.87 20.93L54.87 20.93Q56.01 20.93 56.49 20.42L56.49 20.42L56.49 18.75L54.73 18.75L54.73 17.62L57.96 17.62L57.96 20.89Q57.50 21.50 56.68 21.81Q55.86 22.12 54.82 22.12L54.82 22.12Q53.74 22.12 52.92 21.63Q52.09 21.14 51.64 20.24Q51.20 19.33 51.18 18.13ZM64.06 22L62.58 22L62.58 13.47L64.06 13.47L67.88 19.54L67.88 13.47L69.35 13.47L69.35 22L67.87 22L64.06 15.95L64.06 22ZM79.67 22L74.09 22L74.09 13.47L79.63 13.47L79.63 14.66L75.57 14.66L75.57 17.02L79.07 17.02L79.07 18.19L75.57 18.19L75.57 20.82L79.67 20.82L79.67 22ZM86.32 22L83.86 22L83.86 13.47L86.38 13.47Q87.51 13.47 88.39 13.97Q89.26 14.48 89.74 15.40Q90.22 16.33 90.22 17.52L90.22 17.52L90.22 17.95Q90.22 19.16 89.74 20.08Q89.26 21.00 88.36 21.50Q87.47 22 86.32 22L86.32 22ZM85.34 14.66L85.34 20.82L86.31 20.82Q87.48 20.82 88.10 20.09Q88.72 19.36 88.74 17.99L88.74 17.99L88.74 17.52Q88.74 16.13 88.13 15.40Q87.53 14.66 86.38 14.66L86.38 14.66L85.34 14.66ZM102.05 22L100.08 13.47L101.55 13.47L102.88 19.88L104.50 13.47L105.75 13.47L107.36 19.89L108.67 13.47L110.14 13.47L108.17 22L106.75 22L105.13 15.77L103.47 22L102.05 22ZM115.78 22L114.30 22L114.30 13.47L115.78 13.47L115.78 22ZM122.27 14.66L119.63 14.66L119.63 13.47L126.40 13.47L126.40 14.66L123.74 14.66L123.74 22L122.27 22L122.27 14.66ZM131.64 22L130.16 22L130.16 13.47L131.64 13.47L131.64 17.02L135.45 17.02L135.45 13.47L136.93 13.47L136.93 22L135.45 22L135.45 18.21L131.64 18.21L131.64 22Z" fill="#FFFFFF"/><path class="svg__text" d="M164.32 22L161.89 22L165.60 13.60L167.94 13.60L171.66 22L169.19 22L168.53 20.37L164.98 20.37L164.32 22ZM166.75 15.93L165.67 18.61L167.83 18.61L166.75 15.93ZM179.78 22L175.81 22L175.81 13.60L179.78 13.60Q181.17 13.60 182.23 14.12Q183.30 14.63 183.89 15.58Q184.48 16.53 184.48 17.80L184.48 17.80Q184.48 19.07 183.89 20.02Q183.30 20.97 182.23 21.48Q181.17 22 179.78 22L179.78 22ZM178.19 15.50L178.19 20.10L179.69 20.10Q180.77 20.10 181.42 19.49Q182.08 18.88 182.08 17.80L182.08 17.80Q182.08 16.72 181.42 16.11Q180.77 15.50 179.69 15.50L179.69 15.50L178.19 15.50ZM188.78 17.80L188.78 17.80Q188.78 16.55 189.38 15.55Q189.99 14.56 191.05 14.00Q192.11 13.43 193.44 13.43L193.44 13.43Q194.77 13.43 195.84 14.00Q196.90 14.56 197.51 15.55Q198.11 16.55 198.11 17.80L198.11 17.80Q198.11 19.05 197.51 20.04Q196.90 21.04 195.84 21.60Q194.78 22.17 193.44 22.17L193.44 22.17Q192.11 22.17 191.05 21.60Q189.99 21.04 189.38 20.04Q188.78 19.05 188.78 17.80ZM191.18 17.80L191.18 17.80Q191.18 18.51 191.48 19.05Q191.78 19.60 192.29 19.90Q192.81 20.20 193.44 20.20L193.44 20.20Q194.08 20.20 194.60 19.90Q195.11 19.60 195.41 19.05Q195.71 18.51 195.71 17.80L195.71 17.80Q195.71 17.09 195.41 16.54Q195.11 16 194.60 15.70Q194.08 15.40 193.44 15.40L193.44 15.40Q192.80 15.40 192.29 15.70Q191.78 16 191.48 16.54Q191.18 17.09 191.18 17.80ZM207.38 22L202.84 22L202.84 13.60L207.14 13.60Q208.75 13.60 209.59 14.19Q210.43 14.79 210.43 15.79L210.43 15.79Q210.43 16.39 210.13 16.87Q209.84 17.34 209.30 17.62L209.30 17.62Q210.02 17.87 210.43 18.41Q210.83 18.94 210.83 19.70L210.83 19.70Q210.83 20.80 209.95 21.40Q209.06 22 207.38 22L207.38 22ZM205.20 18.58L205.20 20.28L207.19 20.28Q208.44 20.28 208.44 19.43L208.44 19.43Q208.44 18.58 207.19 18.58L207.19 18.58L205.20 18.58ZM205.20 15.31L205.20 16.94L206.83 16.94Q208.03 16.94 208.03 16.12L208.03 16.12Q208.03 15.31 206.83 15.31L206.83 15.31L205.20 15.31ZM222.29 22L215.55 22L215.55 13.60L222.14 13.60L222.14 15.44L217.91 15.44L217.91 16.85L221.64 16.85L221.64 18.63L217.91 18.63L217.91 20.17L222.29 20.17L222.29 22ZM235.92 22L233.21 22L236.27 17.75L233.34 13.60L236.02 13.60L237.70 16.02L239.35 13.60L241.92 13.60L238.99 17.66L242.12 22L239.38 22L237.64 19.40L235.92 22ZM250.37 22L246.40 22L246.40 13.60L250.37 13.60Q251.76 13.60 252.82 14.12Q253.89 14.63 254.48 15.58Q255.07 16.53 255.07 17.80L255.07 17.80Q255.07 19.07 254.48 20.02Q253.89 20.97 252.82 21.48Q251.76 22 250.37 22L250.37 22ZM248.78 15.50L248.78 20.10L250.28 20.10Q251.36 20.10 252.01 19.49Q252.66 18.88 252.66 17.80L252.66 17.80Q252.66 16.72 252.01 16.11Q251.36 15.50 250.28 15.50L250.28 15.50L248.78 15.50Z" fill="#FFFFFF" x="161.71"/></svg>