<svg xmlns="http://www.w3.org/2000/svg" width="205.22999999999996" height="35" viewBox="0 0 205.22999999999996 35"><rect class="svg__rect" x="0" y="0" width="125.33" height="35" fill="#31C4F3"/><rect class="svg__rect" x="123.33" y="0" width="81.89999999999998" height="35" fill="#389AD5"/><path class="svg__text" d="M13.61 19.57L13.61 19.57L15.09 19.57Q15.09 20.25 15.43 20.59Q15.76 20.93 16.40 20.93L16.40 20.93Q17.00 20.93 17.35 20.54Q17.71 20.14 17.71 19.45L17.71 19.45L17.71 13.47L19.19 13.47L19.19 19.45Q19.19 20.68 18.42 21.40Q17.66 22.12 16.40 22.12L16.40 22.12Q15.07 22.12 14.34 21.44Q13.61 20.77 13.61 19.57ZM24.65 22L23.11 22L26.33 13.47L27.66 13.47L30.89 22L29.34 22L28.64 20.01L25.34 20.01L24.65 22ZM26.99 15.28L25.75 18.82L28.23 18.82L26.99 15.28ZM37.14 22L34.08 13.47L35.70 13.47L37.85 20.14L40.02 13.47L41.64 13.47L38.57 22L37.14 22ZM46.37 22L44.83 22L48.06 13.47L49.39 13.47L52.61 22L51.07 22L50.37 20.01L47.06 20.01L46.37 22ZM48.72 15.28L47.48 18.82L49.95 18.82L48.72 15.28ZM56.14 19.42L56.14 19.42L57.62 19.42Q57.62 20.15 58.10 20.55Q58.58 20.95 59.48 20.95L59.48 20.95Q60.25 20.95 60.64 20.63Q61.03 20.32 61.03 19.80L61.03 19.80Q61.03 19.24 60.63 18.94Q60.24 18.63 59.21 18.32Q58.17 18.01 57.56 17.63L57.56 17.63Q56.40 16.90 56.40 15.72L56.40 15.72Q56.40 14.69 57.24 14.02Q58.08 13.35 59.42 13.35L59.42 13.35Q60.31 13.35 61.01 13.68Q61.71 14.01 62.11 14.61Q62.50 15.22 62.50 15.96L62.50 15.96L61.03 15.96Q61.03 15.29 60.61 14.91Q60.19 14.54 59.41 14.54L59.41 14.54Q58.68 14.54 58.28 14.85Q57.88 15.16 57.88 15.71L57.88 15.71Q57.88 16.18 58.31 16.50Q58.75 16.81 59.74 17.10Q60.74 17.40 61.34 17.78Q61.95 18.16 62.23 18.65Q62.51 19.13 62.51 19.79L62.51 19.79Q62.51 20.86 61.69 21.49Q60.88 22.12 59.48 22.12L59.48 22.12Q58.55 22.12 57.77 21.77Q57.00 21.43 56.57 20.83Q56.14 20.22 56.14 19.42ZM66.53 18.19L66.53 18.19L66.53 17.39Q66.53 16.19 66.96 15.27Q67.39 14.35 68.18 13.85Q68.98 13.35 70.03 13.35L70.03 13.35Q71.45 13.35 72.31 14.12Q73.17 14.89 73.31 16.29L73.31 16.29L71.83 16.29Q71.73 15.37 71.30 14.96Q70.87 14.55 70.03 14.55L70.03 14.55Q69.07 14.55 68.55 15.26Q68.03 15.96 68.02 17.33L68.02 17.33L68.02 18.09Q68.02 19.47 68.51 20.20Q69.01 20.92 69.96 20.92L69.96 20.92Q70.84 20.92 71.28 20.53Q71.72 20.14 71.83 19.22L71.83 19.22L73.31 19.22Q73.18 20.59 72.30 21.35Q71.42 22.12 69.96 22.12L69.96 22.12Q68.94 22.12 68.17 21.63Q67.39 21.15 66.97 20.26Q66.55 19.37 66.53 18.19ZM79.10 22L77.62 22L77.62 13.47L80.62 13.47Q82.10 13.47 82.90 14.13Q83.70 14.79 83.70 16.05L83.70 16.05Q83.70 16.90 83.29 17.48Q82.88 18.06 82.14 18.37L82.14 18.37L84.06 21.92L84.06 22L82.47 22L80.76 18.71L79.10 18.71L79.10 22ZM79.10 14.66L79.10 17.52L80.63 17.52Q81.38 17.52 81.80 17.15Q82.22 16.77 82.22 16.11L82.22 16.11Q82.22 15.43 81.83 15.05Q81.44 14.68 80.67 14.66L80.67 14.66L79.10 14.66ZM89.66 22L88.19 22L88.19 13.47L89.66 13.47L89.66 22ZM95.96 22L94.47 22L94.47 13.47L97.74 13.47Q99.17 13.47 100.01 14.21Q100.85 14.96 100.85 16.18L100.85 16.18Q100.85 17.44 100.02 18.13Q99.20 18.83 97.72 18.83L97.72 18.83L95.96 18.83L95.96 22ZM95.96 14.66L95.96 17.64L97.74 17.64Q98.53 17.64 98.94 17.27Q99.36 16.90 99.36 16.19L99.36 16.19Q99.36 15.50 98.94 15.09Q98.52 14.68 97.78 14.66L97.78 14.66L95.96 14.66ZM106.81 14.66L104.18 14.66L104.18 13.47L110.94 13.47L110.94 14.66L108.28 14.66L108.28 22L106.81 22L106.81 14.66Z" fill="#FFFFFF"/><path class="svg__text" d="M139.90 22L137.52 22L137.52 13.60L141.36 13.60Q142.50 13.60 143.34 13.98Q144.18 14.35 144.64 15.06Q145.09 15.76 145.09 16.71L145.09 16.71Q145.09 17.62 144.67 18.30Q144.24 18.98 143.45 19.36L143.45 19.36L145.26 22L142.72 22L141.19 19.77L139.90 19.77L139.90 22ZM139.90 15.47L139.90 17.93L141.22 17.93Q141.95 17.93 142.32 17.61Q142.69 17.29 142.69 16.71L142.69 16.71Q142.69 16.12 142.32 15.79Q141.95 15.47 141.22 15.47L141.22 15.47L139.90 15.47ZM156.63 22L149.88 22L149.88 13.60L156.47 13.60L156.47 15.44L152.24 15.44L152.24 16.85L155.97 16.85L155.97 18.63L152.24 18.63L152.24 20.17L156.63 20.17L156.63 22ZM162.85 22L160.42 22L164.13 13.60L166.47 13.60L170.19 22L167.72 22L167.06 20.37L163.51 20.37L162.85 22ZM165.29 15.93L164.20 18.61L166.36 18.61L165.29 15.93ZM173.92 17.80L173.92 17.80Q173.92 16.54 174.51 15.54Q175.11 14.55 176.16 13.99Q177.22 13.43 178.53 13.43L178.53 13.43Q179.69 13.43 180.61 13.84Q181.53 14.25 182.15 15.02L182.15 15.02L180.64 16.39Q179.82 15.40 178.66 15.40L178.66 15.40Q177.97 15.40 177.44 15.70Q176.90 16 176.61 16.54Q176.31 17.09 176.31 17.80L176.31 17.80Q176.31 18.51 176.61 19.05Q176.90 19.60 177.44 19.90Q177.97 20.20 178.66 20.20L178.66 20.20Q179.82 20.20 180.64 19.22L180.64 19.22L182.15 20.58Q181.54 21.35 180.61 21.76Q179.69 22.17 178.53 22.17L178.53 22.17Q177.22 22.17 176.16 21.61Q175.11 21.05 174.51 20.05Q173.92 19.06 173.92 17.80ZM188.48 15.48L185.89 15.48L185.89 13.60L193.42 13.60L193.42 15.48L190.85 15.48L190.85 22L188.48 22L188.48 15.48Z" fill="#FFFFFF" x="136.32999999999998"/></svg>